<svg width="1280" height="159" viewBox="0 0 1280 159" fill="none" xmlns="http://www.w3.org/2000/svg">
<path d="M1279.82 137.067C1279.88 137.06 1279.94 137.056 1280 137.049L1277.3 136.088L1275.36 135.059C1243.16 137.416 1214.29 137.284 1187.11 134.655C1100.2 126.253 1049.38 94.1049 1000.2 63.0169C952.638 32.9493 907.741 4.54502 832.081 0.502942C801.151 -1.15383 768.114 1.27318 731.053 7.92439C677.808 17.9089 628.174 39.3481 580.145 60.083C522.832 84.838 463.568 110.433 406.566 111.491C368.157 112.246 328.599 102.121 286.857 91.4475C217.071 73.607 130.209 51.4041 0.847106 67.4298L3.39957 68.2308C2.4633 68.358 1.53817 68.4612 0.601891 68.5928L3.27696 69.3367C2.30725 69.4816 1.34868 69.6023 0.378969 69.7515L3.15436 70.4449C2.16235 70.6073 1.17034 70.7433 0.178338 70.9123L3.00946 71.5553C2.0063 71.7352 1.00315 71.8844 0 72.071L7.64625 73.6707C37.0163 68.2198 64.3912 66.0868 91.22 67.1402C161.831 69.9161 218.944 95.0199 269.324 117.168C320.229 139.542 364.334 158.932 420.321 158.932C421.547 158.932 422.784 158.923 424.032 158.903C503.694 157.69 533.175 136.716 567.316 112.428C591.537 95.1933 618.99 75.6654 668.646 61.72C712.818 49.8505 752.242 44.3689 789.213 44.979C855.388 46.063 907.764 66.552 963.216 88.2458C1021.93 111.219 1082.67 134.969 1169.66 140.233C1204.31 142.331 1241.3 141.271 1279.57 137.091C1279.59 137.091 1279.61 137.089 1279.63 137.087C1279.7 137.08 1279.77 137.076 1279.82 137.067ZM273.426 105.301C322.335 122.386 364.367 137.135 415.818 136.29C487.532 135.092 532.206 111.342 579.51 86.2007C615.479 67.0831 652.673 47.3138 703.745 35.6133C742.165 26.8094 776.083 23.0262 807.304 24.0576C874.247 26.2608 922.766 50.2762 974.139 75.7005C1002.46 89.7139 1031.3 103.951 1064.75 115.467C1033.45 105.364 1005.39 93.0625 977.806 80.9517C922.956 56.8528 871.115 34.0904 798.71 32.3568C760.746 31.4395 720.988 36.3352 677.44 47.3116C625.421 60.4165 593.42 79.8413 562.49 98.6275C523.779 122.127 487.231 144.326 419.028 145.412C372.214 146.198 327.986 128.757 281.317 110.335C261.711 102.593 241.838 94.761 220.838 87.7894C239.296 93.4005 256.74 99.4768 273.426 105.301ZM203.763 79.1567C229.555 85.1913 253.307 92.3625 275.644 99.1322C322.937 113.457 363.877 125.82 411.716 124.984C479.217 123.797 530.5 99.3934 584.793 73.5588C626.469 53.7324 669.548 33.2302 721.233 22.5698C757.202 15.1527 788.701 12.1376 817.625 13.3621C885.572 16.2346 931.94 42.1175 981.027 69.5189C1005.67 83.2733 1030.71 97.2407 1059.62 109.042C1032.68 98.7307 1008.39 86.7251 984.494 74.8908C931.94 48.8762 882.295 24.3034 809.165 21.8961C773.765 20.7353 736.481 24.7488 695.285 34.1869C642.909 46.1837 605.369 66.1417 569.055 85.4414C523.021 109.909 479.529 133.027 414.87 134.107C370.921 134.837 328.22 119.972 283.134 104.228C258.668 95.6827 232.598 86.5957 203.763 79.1567ZM278.029 92.7882C323.595 104.438 362.862 114.508 407.614 113.679C471.036 112.503 528.962 87.4844 590.288 61.0002C637.86 40.4563 687.048 19.2146 738.643 9.53727C772.572 3.44782 802.187 1.18979 829.161 2.62712C898.914 6.3532 942.93 34.1979 989.565 63.6796C1011.87 77.7852 1034.53 92.097 1060.9 104.408C1035.92 93.5409 1013.57 81.0812 991.538 68.7903C941.369 40.7921 893.987 14.3474 819.943 11.2182C786.94 9.82473 751.996 13.0417 713.152 21.0578C660.018 32.0145 616.537 52.7098 574.483 72.7227C521.517 97.9231 471.482 121.73 410.713 122.797C369.539 123.545 328.421 111.094 284.973 97.9319C256.361 89.2684 225.531 79.951 190.554 73.0562C222.31 78.5532 250.877 85.8452 278.029 92.7882ZM790.138 42.7933C749.076 42.1175 706.308 47.8865 659.584 60.4429C608.757 74.7152 581.048 94.4406 556.571 111.844C523.556 135.335 495.033 155.623 423.174 156.715C373.262 157.477 327.719 137.464 279.501 116.268C264.765 109.79 249.885 103.256 234.492 97.1112C247.21 101.798 259.471 106.626 271.33 111.313C320.607 130.764 363.308 147.633 415.985 147.631C417.289 147.631 418.604 147.62 419.931 147.598C495.535 146.393 531.481 124.572 573.09 99.3012C603.73 80.6971 635.419 61.4589 686.223 48.6612C727.174 38.3431 763.588 33.7261 797.372 34.5336C863.525 36.118 914.117 58.3296 967.652 81.847C998.226 95.2745 1029.38 108.913 1065.21 119.685C1032.22 110.339 1002.43 98.7065 973.169 87.2628C916.268 65.0028 862.521 43.9783 790.138 42.7933Z" fill="#003271"/>
</svg>
